<svg width="300" height="300" viewBox="0 0 300 300" fill="none" xmlns="http://www.w3.org/2000/svg">
<g clip-path="url(#clip0_142_244)">
<path fill-rule="evenodd" clip-rule="evenodd" d="M229.124 250C230.263 250 231.358 249.557 232.175 248.763C232.991 247.969 233.467 246.889 233.499 245.75C234.309 233.597 233.383 221.391 230.749 209.5C229.63 204.353 228.126 199.297 226.249 194.375C224.382 189.453 222.125 184.688 219.499 180.125C213.561 170.032 205.341 161.47 195.499 155.125C201.674 149.66 206.584 142.915 209.887 135.359C213.19 127.804 214.806 119.619 214.624 111.375C215.495 100.622 214.522 89.8002 211.749 79.375C209.384 72.335 205.645 65.8344 200.749 60.25C200.353 59.8379 199.877 59.5101 199.351 59.2861C198.825 59.0622 198.259 58.9468 197.687 58.9468C197.115 58.9468 196.549 59.0622 196.023 59.2861C195.496 59.5101 195.021 59.8379 194.624 60.25C193.734 60.9826 193.169 62.037 193.052 63.184C192.935 64.3309 193.275 65.4777 193.999 66.375C198.996 72.3607 202.317 79.5635 203.624 87.25C204.632 95.3437 204.632 103.531 203.624 111.625C203.51 121.568 200.134 131.198 194.014 139.035C187.893 146.871 179.368 152.481 169.749 155C160.012 157.624 149.809 158.02 139.897 156.159C129.986 154.298 120.622 150.227 112.499 144.25C106.93 139.71 102.911 133.551 100.999 126.625C98.5778 119.388 97.7672 111.708 98.6243 104.125C99.7163 93.1671 103.401 82.6265 109.374 73.375C115.241 64.377 124.094 57.7373 134.374 54.625C142.245 52.242 150.403 50.9385 158.624 50.75C166.715 50.5831 174.755 52.0719 182.249 55.125C183.161 55.5394 184.2 55.5747 185.138 55.223C186.075 54.8714 186.835 54.1617 187.249 53.25C187.664 52.3383 187.699 51.2994 187.347 50.3617C186.996 49.424 186.286 48.6644 185.374 48.25C177.054 44.2552 167.977 42.0818 158.749 41.875C149.664 41.6788 140.59 42.6449 131.749 44.75C119.009 48.054 107.797 55.6468 99.9993 66.25C92.3195 76.8297 87.264 89.083 85.2493 102C83.7858 111.712 84.5553 121.63 87.4993 131C90.2667 140.91 96.1371 149.671 104.249 156L106.999 157.75C95.4797 163.082 85.4383 171.15 77.7493 181.25C72.5827 188.028 68.6091 195.637 65.9993 203.75C63.4917 211.856 62.1039 220.268 61.8743 228.75C61.1623 234.89 60.8283 241.069 60.8743 247.25C60.8889 250.533 61.6138 253.774 62.9993 256.75C63.5012 257.64 64.3247 258.305 65.301 258.607C66.2773 258.909 67.3322 258.826 68.2493 258.375C68.7018 258.138 69.1029 257.814 69.4297 257.422C69.7565 257.029 70.0025 256.576 70.1535 256.088C70.3045 255.6 70.3576 255.087 70.3097 254.579C70.2618 254.07 70.1138 253.576 69.8743 253.125C69.1801 250.504 69.1801 247.746 69.8743 245.125C70.7493 239.5 72.6243 233.5 73.3743 230.125C74.7001 222.881 76.7953 215.799 79.6243 209C82.1669 202.288 85.4364 195.875 89.3743 189.875C96.5206 179.039 106.166 170.079 117.499 163.75C135.3 171.825 155.439 173.114 174.124 167.375C179.458 165.623 184.543 163.186 189.249 160.125C198.171 168.89 204.969 179.579 209.124 191.375C212.124 198.25 214.874 205.375 217.249 212.5C221.153 223.277 223.755 234.481 224.999 245.875C225.059 246.95 225.513 247.964 226.274 248.725C227.035 249.486 228.05 249.94 229.124 250Z" fill="white"/>
<path fill-rule="evenodd" clip-rule="evenodd" d="M2.99954 78.5C2.91747 79.0804 2.91747 79.6696 2.99954 80.25C3.29979 81.0051 3.84504 81.6374 4.54776 82.0454C5.25048 82.4535 6.06992 82.6135 6.87454 82.5C11.6245 81.75 10.1245 77.375 10.2495 72.25C10.82 59.3595 12.0718 46.5083 13.9995 33.75C14.4085 28.8945 15.4162 24.1082 16.9995 19.5C17.327 18.6757 17.8332 17.9343 18.4817 17.3291C19.1301 16.7239 19.9046 16.2699 20.7495 16C25.9037 14.9629 31.1253 14.2945 36.3745 14C40.2976 13.2519 44.2637 12.7509 48.2495 12.5H77.7495C78.8678 12.5018 79.9443 12.0754 80.758 11.3082C81.5716 10.5411 82.0606 9.49145 82.1245 8.375C82.1245 7.21468 81.6636 6.10188 80.8431 5.28141C80.0227 4.46094 78.9099 4 77.7495 4C67.8745 3.5 58.2495 1.625 48.3745 1C43.9276 0.582692 39.4535 0.540878 34.9995 0.875C28.7653 0.683257 22.5272 1.10192 16.3745 2.125C13.546 2.9495 10.9461 4.41638 8.77784 6.41119C6.60956 8.40601 4.93149 10.8748 3.87454 13.625C1.56807 19.665 0.259319 26.0399 -0.000460276 32.5C-0.194332 45.9113 0.557532 59.3195 2.24954 72.625C2.37478 74.5972 2.62528 76.5595 2.99954 78.5Z" fill="white"/>
<path fill-rule="evenodd" clip-rule="evenodd" d="M78.6243 287.5H48.9993C45.1386 287.239 41.2979 286.738 37.4993 286C32.2088 285.705 26.9457 285.037 21.7493 284C20.9059 283.717 20.1395 283.243 19.5105 282.614C18.8815 281.985 18.407 281.218 18.1243 280.375C16.4736 275.822 15.4231 271.074 14.9993 266.25C13.231 253.484 12.1461 240.632 11.7493 227.75C12.1111 225.096 12.1111 222.404 11.7493 219.75C11.7493 218.625 5.37434 215.625 4.24934 221.5L3.49934 227.375C1.66817 240.669 0.832511 254.081 0.999342 267.5C1.13888 273.939 2.32086 280.314 4.49934 286.375C5.54791 289.13 7.22322 291.604 9.39274 293.6C11.5623 295.596 14.1665 297.059 16.9993 297.875C23.148 298.939 29.386 299.4 35.6243 299.25C40.1189 299.562 44.6298 299.562 49.1243 299.25C58.9993 298.5 68.6243 296.75 78.4993 296.25C79.6597 296.25 80.7725 295.789 81.5929 294.969C82.4134 294.148 82.8743 293.035 82.8743 291.875C82.8743 290.715 82.4134 289.602 81.5929 288.781C80.7725 287.961 79.6597 287.5 78.4993 287.5H78.6243Z" fill="white"/>
<path fill-rule="evenodd" clip-rule="evenodd" d="M221.374 12.5C231.249 13.125 241.124 12.5 250.999 12.5C254.936 12.6268 258.86 13.0026 262.749 13.625C268.04 13.9199 273.303 14.5883 278.499 15.625C279.325 15.903 280.079 16.3613 280.706 16.9666C281.333 17.572 281.818 18.3093 282.124 19.125C283.772 23.7215 284.822 28.5108 285.249 33.375C287.296 48.7961 288.465 64.3212 288.749 79.875C288.749 81 295.124 83.875 296.249 78.125L296.999 72.25C298.663 58.9015 299.332 45.4477 298.999 32C298.862 25.6011 297.68 19.2676 295.499 13.25C294.458 10.4766 292.788 7.98289 290.618 5.96552C288.449 3.94815 285.841 2.46226 282.999 1.625C276.839 0.668448 270.607 0.250201 264.374 0.375C259.878 0.125064 255.371 0.125064 250.874 0.375C240.999 1.125 231.374 2.875 221.499 3.5C220.372 3.5 219.291 3.94777 218.494 4.7448C217.697 5.54183 217.249 6.62283 217.249 7.75C217.18 8.33824 217.233 8.93459 217.408 9.50077C217.582 10.067 217.872 10.5905 218.261 11.0377C218.649 11.485 219.127 11.8461 219.663 12.0979C220.199 12.3498 220.782 12.4867 221.374 12.5Z" fill="white"/>
<path fill-rule="evenodd" clip-rule="evenodd" d="M297.75 227.125C297.75 221.875 297.125 216.625 292.75 217.375C288.375 218.125 289.5 221.75 289.375 227.5C288.939 240.384 287.812 253.236 286 266C285.604 270.857 284.596 275.645 283 280.25C282.688 281.084 282.187 281.834 281.536 282.441C280.886 283.049 280.103 283.497 279.25 283.75C274.106 284.848 268.879 285.517 263.625 285.75C259.694 286.372 255.727 286.748 251.75 286.875H222.25C221.622 286.768 220.978 286.799 220.364 286.966C219.749 287.133 219.178 287.433 218.692 287.844C218.205 288.254 217.814 288.766 217.545 289.344C217.277 289.921 217.138 290.551 217.138 291.188C217.138 291.824 217.277 292.454 217.545 293.031C217.814 293.609 218.205 294.121 218.692 294.531C219.178 294.942 219.749 295.242 220.364 295.409C220.978 295.576 221.622 295.607 222.25 295.5C232.125 296.125 241.75 297.875 251.625 298.625C256.079 298.875 260.545 298.875 265 298.625C271.233 298.754 277.465 298.336 283.625 297.375C286.457 296.52 289.057 295.028 291.224 293.013C293.391 290.998 295.067 288.514 296.125 285.75C298.305 279.732 299.487 273.399 299.625 267C299.924 253.681 299.298 240.357 297.75 227.125Z" fill="white"/>
</g>
<defs>
<clipPath id="clip0_142_244">
<rect width="300" height="300" fill="white"/>
</clipPath>
</defs>
</svg>
