<svg width="311" height="253" viewBox="0 0 311 253" fill="none" xmlns="http://www.w3.org/2000/svg">
<path fill-rule="evenodd" clip-rule="evenodd" d="M135.995 120.029C135.694 114.838 134.23 109.796 131.724 105.315C129.911 102.148 127.64 99.298 124.993 96.8678C124.011 96.0209 122.865 95.4111 121.635 95.0815C120.404 94.752 119.121 94.7106 117.874 94.9604C116.223 95.5211 114.697 96.4251 113.385 97.6187C112.073 98.8123 111.002 100.271 110.236 101.909C106.871 108.04 103.506 119.211 101.952 121.664C98.0082 128.36 92.9167 134.227 86.937 138.966L85.772 139.784C86.8076 138.013 87.8431 136.514 88.7492 134.743C91.1392 129.912 92.5879 124.628 93.0103 119.2C93.4326 113.772 92.8201 108.31 91.2086 103.135C87.6431 93.5069 81.1297 85.4048 72.6985 80.1102C64.4248 74.6297 54.7655 71.9217 44.998 72.3444C36.7896 72.6282 28.8077 75.2485 21.9015 79.9265C14.9953 84.6046 9.42293 91.1656 5.77721 98.9114C2.40524 106.809 1.50337 115.63 3.20163 124.102C4.89988 132.574 9.11053 140.26 15.2264 146.051C16.8022 147.691 18.5377 149.153 20.4041 150.411C19.0158 151.029 17.6744 151.757 16.3914 152.59C13.8944 154.513 11.5951 156.704 9.53101 159.13C5.49208 164.29 2.61559 170.345 1.11731 176.841C-0.372438 183.379 -0.372438 190.195 1.11731 196.732C2.25206 202.505 4.90427 207.826 8.77184 212.089C12.6394 216.353 17.5669 219.387 22.9929 220.847V222.618C23.899 231.474 25.5818 240.057 26.6173 248.504C26.6173 249.696 27.0673 250.84 27.8684 251.683C28.6695 252.526 29.756 253 30.8889 253C31.9099 252.904 32.864 252.424 33.5769 251.649C34.2899 250.873 34.7141 249.854 34.7721 248.777C35.5488 239.24 36.3254 229.43 36.4548 219.485V202.455C35.7235 194.031 35.5073 185.567 35.8076 177.114C35.9213 176.612 35.9371 176.091 35.8541 175.583C35.7712 175.075 35.5912 174.59 35.325 174.157C35.0588 173.724 34.712 173.352 34.3055 173.064C33.899 172.776 33.4412 172.578 32.9599 172.482C31.9998 172.278 31.0022 172.478 30.18 173.038C29.3578 173.598 28.7761 174.474 28.5589 175.479C25.1635 185.013 23.1138 195.02 22.4752 205.179V209.539C19.3544 207.017 16.9759 203.616 15.6148 199.73C13.8658 193.227 13.8658 186.341 15.6148 179.839C16.1833 175.085 17.5415 170.473 19.6274 166.214C20.9355 163.541 22.6396 161.103 24.6757 158.994C26.229 157.495 27.9117 156.269 29.465 154.906L31.4066 155.86C39.599 158.102 48.0598 159.066 56.5183 158.721C57.5138 158.721 58.4686 158.305 59.1726 157.564C59.8766 156.823 60.2721 155.818 60.2721 154.77C60.2721 153.722 59.8766 152.717 59.1726 151.976C58.4686 151.236 57.5138 150.819 56.5183 150.819C48.9329 150.644 41.4204 149.219 34.2543 146.596C29.9827 144.979 26.2194 142.15 23.3813 138.421C19.3877 134.073 16.771 128.53 15.8903 122.553C15.0096 116.577 15.9081 110.46 18.4625 105.042C21.1925 99.7873 25.1909 95.383 30.0542 92.2734C34.9175 89.1639 40.4739 87.4591 46.163 87.3309C53.1569 86.9353 60.114 88.636 66.2264 92.2356C72.467 95.6673 77.5015 101.109 80.5944 107.767C83.1181 115.082 82.8396 123.144 79.8177 130.247C78.5534 133.976 76.5319 137.371 73.8941 140.195C71.2562 143.018 68.0653 145.203 64.5436 146.596C64.0141 146.752 63.5194 147.018 63.0885 147.378C62.6576 147.738 62.2992 148.185 62.0341 148.692C61.769 149.199 61.6026 149.757 61.5445 150.333C61.4865 150.909 61.5379 151.491 61.6959 152.045C61.9058 152.781 62.3086 153.44 62.8581 153.946C63.4076 154.452 64.0815 154.785 64.8025 154.906C65.1123 155.647 65.6537 156.254 66.3367 156.626C67.0196 156.998 67.803 157.112 68.5563 156.95C77.0832 155.328 85.2213 151.948 92.503 147.005C99.8258 141.991 106.264 135.675 111.531 128.339C112.825 126.432 115.673 114.715 118.78 109.402C118.78 110.628 119.815 112.127 119.945 112.536C121.564 115.805 122.281 119.486 122.016 123.162C121.681 127.455 120.766 131.676 119.297 135.697C117.126 142.04 114.073 148.009 110.236 153.408C106.493 159.083 102.151 164.294 97.2923 168.939C94.3152 171.937 87.7137 175.751 84.3482 179.566C82.7164 180.998 81.3173 182.701 80.2061 184.607C79.3303 186.703 79.0169 189.012 79.3 191.283C79.3 195.37 81.6299 201.773 81.8888 203.953C82.6655 210.493 83.4421 217.577 83.701 223.844C84.0894 230.423 84.0894 237.021 83.701 243.599C83.553 244.223 83.5336 244.872 83.6442 245.504C83.7548 246.136 83.9928 246.736 84.3422 247.263C84.6916 247.789 85.1442 248.231 85.6695 248.559C86.1949 248.886 86.7808 249.091 87.3877 249.16C87.9947 249.228 88.6086 249.16 89.1881 248.957C89.7676 248.755 90.2992 248.425 90.7472 247.989C91.1951 247.552 91.549 247.019 91.7848 246.427C92.0207 245.834 92.1332 245.195 92.1147 244.553C92.8898 237.589 93.2788 230.584 93.2797 223.572V202.863C93.2797 200.683 94.4446 191.828 92.3736 189.239L107 178.749C112.78 173.657 117.952 167.847 122.404 161.446C127.019 154.925 130.684 147.716 133.277 140.056C135.363 133.617 136.285 126.825 135.995 120.029Z" fill="white"/>
<path fill-rule="evenodd" clip-rule="evenodd" d="M232.817 29.5648C226.475 34.4694 219.873 39.1016 213.53 43.1889C207.303 47.6488 200.818 51.6984 194.114 55.3143C189.584 58.0391 184.924 60.3552 180.264 62.6713C175.604 64.9874 170.685 67.576 165.767 69.7559C160.848 71.9357 152.822 75.478 145.574 78.2028C145.098 78.3459 144.653 78.5863 144.266 78.9103C143.878 79.2342 143.555 79.6354 143.314 80.0908C143.074 80.5462 142.921 81.0471 142.864 81.5647C142.808 82.0823 142.849 82.6065 142.985 83.1075C143.121 83.6084 143.349 84.0763 143.657 84.4843C143.965 84.8924 144.346 85.2327 144.779 85.4857C145.211 85.7387 145.687 85.8995 146.179 85.959C146.671 86.0185 147.169 85.9754 147.645 85.8323C158.894 84.0706 170.043 81.66 181.041 78.6115C188.305 76.0911 195.326 72.8522 202.01 68.9384C207.553 65.3001 212.87 61.2957 217.931 56.9492C225.31 50.5459 232.17 43.3251 239.16 36.513C240.035 35.6278 240.541 34.4127 240.565 33.1352C240.589 31.8577 240.13 30.6224 239.289 29.701C238.448 28.7796 237.294 28.2476 236.08 28.2221C234.866 28.1965 233.693 28.6795 232.817 29.5648Z" fill="white"/>
<path fill-rule="evenodd" clip-rule="evenodd" d="M171.199 88.2843C170.238 88.0366 169.223 88.1981 168.375 88.7339C167.527 89.2697 166.914 90.1363 166.669 91.1454C164.234 96.5601 162.326 102.22 160.974 108.039C160.429 110.548 160.083 113.1 159.938 115.669C159.81 118.165 159.81 120.666 159.938 123.162C159.938 129.157 161.491 134.743 162.397 140.465C162.397 141.657 162.847 142.801 163.649 143.644C164.45 144.487 165.536 144.961 166.669 144.961C167.802 144.961 168.888 144.487 169.689 143.644C170.491 142.801 170.941 141.657 170.941 140.465C170.941 135.015 172.623 129.565 173.4 123.843C173.786 121.545 174.046 119.225 174.177 116.895V109.81C174.177 104.088 173.4 98.7749 174.177 93.3252C174.31 92.7879 174.339 92.2275 174.26 91.6783C174.181 91.129 173.997 90.6024 173.718 90.1307C173.44 89.6589 173.073 89.2519 172.64 88.9344C172.206 88.617 171.716 88.3958 171.199 88.2843Z" fill="white"/>
<path fill-rule="evenodd" clip-rule="evenodd" d="M208.739 73.4341C207.762 73.318 206.782 73.6098 206.007 74.2466C205.233 74.8835 204.726 75.8146 204.597 76.8401C202.319 84.0509 200.545 91.4277 199.29 98.9111C198.796 102.158 198.493 105.434 198.384 108.72V118.394C198.384 126.023 200.067 133.516 201.102 141.01C201.168 142.19 201.661 143.3 202.479 144.11C203.297 144.921 204.379 145.371 205.503 145.369C206.064 145.352 206.616 145.218 207.128 144.975C207.64 144.733 208.102 144.387 208.486 143.957C208.871 143.527 209.171 143.021 209.37 142.468C209.569 141.916 209.662 141.328 209.645 140.737C209.645 133.244 211.198 126.023 211.846 118.666C211.846 115.533 211.846 112.399 212.493 109.265C213.14 106.132 212.493 102.998 212.493 99.8648C212.493 92.5078 211.587 85.287 211.587 77.7938C211.708 76.8251 211.485 75.8433 210.959 75.0382C210.433 74.233 209.642 73.6615 208.739 73.4341Z" fill="white"/>
<path fill-rule="evenodd" clip-rule="evenodd" d="M232.824 83.6514C232.824 87.6024 232.047 91.6897 231.788 95.7769C231.594 99.8161 231.594 103.863 231.788 107.902C232.321 117.528 233.576 127.095 235.542 136.513C235.588 137.095 235.748 137.66 236.013 138.174C236.277 138.687 236.639 139.137 237.077 139.496C237.515 139.854 238.019 140.113 238.557 140.256C239.094 140.4 239.655 140.424 240.202 140.328C241.313 140.191 242.329 139.6 243.031 138.683C243.733 137.766 244.065 136.595 243.956 135.423C243.956 126.022 244.732 116.758 245.25 107.357C245.25 101.09 246.286 94.8232 246.286 88.5561C246.286 77.7931 245.638 67.1663 245.121 56.5395C245.156 56.0204 245.093 55.4991 244.936 55.0055C244.78 54.5119 244.532 54.0558 244.207 53.6633C243.882 53.2709 243.487 52.9498 243.044 52.7186C242.601 52.4874 242.119 52.3506 241.626 52.316C241.139 52.2791 240.65 52.3459 240.189 52.5124C239.728 52.679 239.303 52.9419 238.94 53.2854C238.578 53.6289 238.285 54.0459 238.079 54.5114C237.873 54.9769 237.759 55.4814 237.742 55.9945C235.671 65.1227 233.6 74.2508 232.824 83.6514Z" fill="white"/>
<path fill-rule="evenodd" clip-rule="evenodd" d="M306.729 4.49595C288.647 2.0383 270.459 0.537756 252.234 0H211.589C197.998 0 184.536 -7.61306e-07 171.074 0.817445H143.244C129.178 0.817445 115.069 1.36241 100.917 2.45234C85.2544 3.40603 69.592 4.90468 53.9296 7.35701C52.934 7.48348 52.0269 8.02103 51.4079 8.85141C50.7889 9.68179 50.5087 10.737 50.6288 11.7848C50.749 12.8327 51.2597 13.7874 52.0486 14.439C52.8376 15.0905 53.8401 15.3855 54.8357 15.259C62.2138 14.714 69.7214 14.5778 77.4879 14.4415C77.3657 14.8866 77.3657 15.3589 77.4879 15.804C76.1289 22.2822 75.092 28.8307 74.3813 35.4227C74.1876 38.1891 74.1876 40.9669 74.3813 43.7334V52.1803C74.3813 58.7199 76.1935 65.1232 77.0996 71.6628C77.1657 72.8435 77.6584 73.9529 78.4767 74.7635C79.295 75.5741 80.3769 76.0245 81.5006 76.0225C82.4836 75.8589 83.3777 75.3283 84.0195 74.5277C84.6613 73.7271 85.0077 72.7102 84.9955 71.6628C85.7722 65.1232 86.6783 58.0387 87.196 52.0441V43.7334V35.4227C87.196 28.7469 85.125 22.616 84.0894 16.0764V14.3053H90.3026C106.612 14.3053 122.922 15.1228 139.232 15.5315H172.11C182.983 15.5315 197.351 15.5315 210.036 14.1691C228.805 13.3516 247.704 11.9892 266.473 11.853C274.368 11.853 282.135 11.853 289.901 12.8067C288.866 31.1992 287.83 49.5917 287.313 68.1205V99.7284V131.473C287.313 142.099 286.277 152.454 285.112 162.944C284.962 164.133 285.256 165.337 285.932 166.303C286.608 167.268 287.613 167.92 288.736 168.121C289.851 168.277 290.979 167.964 291.876 167.25C292.772 166.535 293.365 165.478 293.526 164.307C297.75 143.209 300.433 121.802 301.551 100.273C301.551 87.4667 302.198 74.5238 301.551 61.7172C301.551 45.3683 299.61 29.1556 298.574 13.0791H306.858C307.889 13.0462 308.874 12.6218 309.631 11.8843C310.387 11.1468 310.865 10.1459 310.976 9.06665C311.086 7.98735 310.822 6.90244 310.231 6.01225C309.641 5.12205 308.765 4.48669 307.764 4.22347L306.729 4.49595Z" fill="white"/>
<path fill-rule="evenodd" clip-rule="evenodd" d="M278.379 162.127C264.199 164.411 249.878 165.595 235.534 165.669H195.407H134.31C133.322 165.63 132.357 165.988 131.611 166.672C130.866 167.355 130.396 168.312 130.298 169.348C130.262 169.867 130.325 170.388 130.482 170.882C130.639 171.375 130.886 171.832 131.211 172.224C131.536 172.616 131.931 172.938 132.374 173.169C132.817 173.4 133.299 173.537 133.793 173.571C146.737 175.342 159.681 177.25 171.848 178.885C171.426 179.852 171.08 180.855 170.813 181.882C170.685 183.013 170.685 184.157 170.813 185.288C170.698 186.42 170.698 187.562 170.813 188.694C170.868 189.374 170.868 190.058 170.813 190.738C167.704 191.974 164.956 194.045 162.844 196.746C160.732 199.448 159.329 202.684 158.775 206.133C158.775 206.814 155.15 230.656 183.757 228.204C194.371 228.204 198.902 218.531 198.513 208.858C198.265 204.313 196.671 199.964 193.955 196.421C191.239 192.878 187.537 190.319 183.369 189.103C183.425 188.834 183.425 188.555 183.369 188.285C183.495 187.154 183.495 186.011 183.369 184.879C183.555 183.752 183.555 182.6 183.369 181.473V180.383C190.747 181.065 197.996 181.473 205.374 181.473C212.752 181.473 220.259 181.473 227.638 180.792C245.12 179.537 262.454 176.572 279.414 171.936C280.53 171.684 281.504 170.974 282.124 169.965C282.743 168.956 282.955 167.729 282.715 166.555C282.475 165.381 281.801 164.355 280.842 163.703C279.883 163.052 278.718 162.828 277.602 163.081L278.379 162.127ZM187.77 209.403C188.546 213.218 187.77 217.577 184.016 218.258C184.016 218.258 171.072 225.07 171.072 210.493C171.314 208.456 172.23 206.574 173.661 205.179C174.626 204.069 175.851 203.245 177.215 202.791C178.578 202.337 180.03 202.268 181.427 202.591C183.03 202.85 184.507 203.657 185.63 204.889C186.753 206.12 187.46 207.706 187.64 209.403H187.77Z" fill="white"/>
</svg>
