<svg width="300" height="300" viewBox="0 0 300 300" fill="none" xmlns="http://www.w3.org/2000/svg">
<g clip-path="url(#clip0_142_252)">
<path fill-rule="evenodd" clip-rule="evenodd" d="M90.6245 158.75C91.1311 158.69 91.6201 158.527 92.0616 158.271C92.503 158.015 92.8876 157.672 93.1918 157.262C93.496 156.853 93.7135 156.386 93.8309 155.889C93.9483 155.393 93.9631 154.877 93.8745 154.375C93.9361 144.323 97.5691 134.62 104.125 127C107.919 121.93 112.01 117.088 116.375 112.5C122.658 105.618 129.336 99.1068 136.375 93C141.154 94.2588 146.06 94.9717 151 95.125C151.907 95.1597 152.793 94.84 153.47 94.2335C154.146 93.6271 154.56 92.7813 154.625 91.875C154.659 91.4315 154.605 90.9857 154.466 90.5632C154.327 90.1406 154.106 89.7497 153.816 89.4128C153.525 89.0759 153.171 88.7998 152.774 88.6002C152.376 88.4007 151.943 88.2816 151.5 88.25C125 86 112.5 69.5 112.5 52.25C116.143 54.0802 120.076 55.2644 124.125 55.75C126.033 56.0001 127.966 56.0001 129.875 55.75C131.84 55.3994 133.766 54.8551 135.625 54.125C140.128 52.3897 144.125 49.5533 147.25 45.875C147.25 45.875 147.25 45 148 44.5L152.5 47C156.472 48.9346 160.671 50.3624 165 51.25C173.28 52.5791 181.719 52.5791 190 51.25C191.025 60.2561 188.566 69.3132 183.127 76.5645C177.689 83.8159 169.682 88.7123 160.75 90.25C159.709 90.3756 158.76 90.9043 158.106 91.7224C157.451 92.5405 157.144 93.5827 157.25 94.625C157.311 95.1356 157.474 95.6288 157.728 96.076C157.982 96.5231 158.323 96.9151 158.73 97.2293C159.137 97.5434 159.603 97.7734 160.1 97.9057C160.597 98.038 161.115 98.0701 161.625 98C167.423 97.5526 173.053 95.8463 178.125 93C182.239 97.4635 185.961 102.273 189.25 107.375C191.203 110.146 192.997 113.026 194.625 116C196.375 119 198 121.875 199.5 125C203.203 132.474 206.256 140.252 208.625 148.25C208.696 148.756 208.874 149.24 209.146 149.672C209.418 150.104 209.778 150.474 210.203 150.757C210.628 151.041 211.108 151.231 211.611 151.316C212.115 151.401 212.63 151.378 213.125 151.25C214.136 151.067 215.033 150.491 215.619 149.647C216.205 148.803 216.432 147.761 216.25 146.75C215.462 137.753 213.702 128.868 211 120.25C209.655 116.546 208.025 112.952 206.125 109.5C204.383 106.149 202.333 102.969 200 100C195.861 95.579 191.202 91.6756 186.125 88.375C191.633 83.0514 195.874 76.5581 198.535 69.3749C201.197 62.1917 202.21 54.5023 201.5 46.875C201.451 40.6487 200.172 34.4935 197.736 28.7632C195.3 23.0328 191.756 17.8404 187.307 13.4843C182.858 9.12824 177.592 5.69446 171.812 3.38035C166.031 1.06624 159.85 -0.0825528 153.625 -3.83705e-07C140.237 -0.479903 127.193 4.30118 117.287 13.3195C107.381 22.3377 101.4 34.8762 100.625 48.25C100.307 57.0874 102.668 65.8145 107.396 73.287C112.125 80.7596 119.002 86.6287 127.125 90.125C120.237 94.037 113.711 98.5549 107.625 103.625C102.168 108.296 97.4115 113.726 93.4995 119.75C89.9696 124.925 87.5098 130.754 86.2648 136.893C85.0198 143.032 85.0146 149.359 86.2495 155.5C86.3098 156.007 86.4728 156.496 86.7286 156.937C86.9844 157.378 87.3275 157.763 87.7371 158.067C88.1466 158.372 88.6139 158.589 89.1104 158.706C89.6069 158.824 90.1221 158.839 90.6245 158.75ZM154 13.125C162.511 12.8594 170.82 15.7508 177.327 21.243C183.835 26.7352 188.081 34.4401 189.25 42.875C182.028 42.6044 174.878 41.3426 168 39.125C164.435 38.0325 160.966 36.653 157.625 35C154.282 33.4116 151.065 31.573 148 29.5C142.819 26.0418 138.184 21.8286 134.25 17C140.484 14.3235 147.216 13.0026 154 13.125ZM126.75 21.875C130.118 28.5702 134.744 34.5541 140.375 39.5H141.125C139.549 40.1486 137.917 40.6507 136.25 41H130.375L125 43C120.901 44.0408 116.718 44.7102 112.5 45C114.193 35.7817 119.277 27.5317 126.75 21.875Z" fill="white"/>
<path fill-rule="evenodd" clip-rule="evenodd" d="M285.125 194C282.5 191.625 275.375 186.375 274.875 186L235.875 152.375C235.56 152.046 235.181 151.784 234.762 151.605C234.343 151.427 233.893 151.334 233.437 151.334C232.982 151.334 232.531 151.427 232.112 151.605C231.693 151.784 231.315 152.046 231 152.375C230.366 153.028 230.011 153.902 230.011 154.812C230.011 155.723 230.366 156.597 231 157.25L263.625 192.875C235.75 192.875 207.875 191.375 180 190.875H155H115.75C88.7497 190.875 61.8747 192.625 34.8747 193.125L68.1247 156.875C68.7585 156.222 69.113 155.348 69.113 154.437C69.113 153.527 68.7585 152.653 68.1247 152C67.8097 151.671 67.4313 151.409 67.0124 151.23C66.5935 151.052 66.1427 150.959 65.6872 150.959C65.2317 150.959 64.7809 151.052 64.362 151.23C63.9431 151.409 63.5647 151.671 63.2497 152L24.9997 186C24.9997 186 17.3747 191.625 14.7497 194C13.7246 194.917 12.9301 196.062 12.4306 197.344C11.931 198.625 11.7406 200.006 11.8747 201.375C12.3054 202.987 13.2219 204.427 14.4997 205.5C15.9997 206.875 20.1247 209.875 20.6247 210.25C25.3747 214.125 29.8747 218.25 34.4997 222.125C39.1247 226 41.1247 227.375 44.6247 229.75C48.1247 232.125 54.7497 236.75 59.9997 239.875C63.5136 242.07 67.1439 244.073 70.8747 245.875C71.7864 246.372 72.8583 246.487 73.8545 246.194C74.8508 245.901 75.6899 245.224 76.1872 244.312C76.6845 243.401 76.7992 242.329 76.5062 241.333C76.2132 240.336 75.5364 239.497 74.6247 239C71.2497 237 68.1247 234.75 64.9997 232.5C61.8747 230.25 55.7497 225 51.2497 221.25L29.9997 201C54.9997 202.25 78.8747 203.25 103.375 203.75H143.25C142 211.875 140.625 221.5 140 231.75V245.25C140 249.75 140 254.25 140.75 258.75C141.5 266.125 142.5 273.125 143.625 279.5L138.875 275C131.875 267.5 125.125 259.5 117.75 252.375C114.583 249.226 111.199 246.302 107.625 243.625C106.993 242.999 106.139 242.648 105.25 242.648C104.36 242.648 103.507 242.999 102.875 243.625C102.546 243.94 102.284 244.318 102.105 244.737C101.926 245.156 101.834 245.607 101.834 246.062C101.834 246.518 101.926 246.969 102.105 247.388C102.284 247.807 102.546 248.185 102.875 248.5C112.729 259.558 121.793 271.295 130 283.625C134.208 289.041 139.033 293.949 144.375 298.25C145.601 298.989 147.006 299.379 148.437 299.379C149.869 299.379 151.273 298.989 152.5 298.25C156.322 295.817 159.957 293.101 163.375 290.125C166.42 287.371 169.222 284.36 171.75 281.125C175.375 276.625 178.625 271.875 181.875 267.25L197.625 247C198.354 246.254 198.757 245.249 198.745 244.206C198.734 243.163 198.308 242.167 197.562 241.438C196.816 240.708 195.811 240.305 194.768 240.317C193.725 240.328 192.729 240.754 192 241.5L173.875 260.75C170.125 264.875 166.5 269.125 162.625 273.25C160.279 275.743 157.774 278.082 155.125 280.25L152.5 282.875V256.75V235.625C152.5 223.125 150.875 212.5 150.5 203.125H155.5L204.375 202.375C226.125 202.375 247.75 201.25 269.375 200.5L248.75 221.25C244.25 225.125 239.75 229 234.875 232.5C230 236 228.625 237 225.25 239C224.798 239.246 224.4 239.579 224.077 239.979C223.754 240.379 223.513 240.839 223.368 241.333C223.223 241.826 223.177 242.343 223.231 242.854C223.286 243.366 223.441 243.861 223.687 244.312C224.184 245.224 225.024 245.901 226.02 246.194C226.513 246.339 227.03 246.386 227.542 246.331C228.053 246.276 228.548 246.121 229 245.875C232.73 244.073 236.361 242.07 239.875 239.875C245.125 236.75 250.25 233.25 255.25 229.75C260.25 226.25 262.125 224.75 265.375 222.125C268.625 219.5 274.5 214.125 279.25 210.25C279.25 210.25 283.875 206.875 285.375 205.5C286.652 204.427 287.569 202.987 288 201.375C288.134 200.006 287.943 198.625 287.444 197.344C286.944 196.062 286.15 194.917 285.125 194Z" fill="white"/>
</g>
<defs>
<clipPath id="clip0_142_252">
<rect width="300" height="300" fill="white"/>
</clipPath>
</defs>
</svg>
