<svg width="267" height="266" viewBox="0 0 267 266" fill="none" xmlns="http://www.w3.org/2000/svg">
<path fill-rule="evenodd" clip-rule="evenodd" d="M80.4247 160.673C83.4148 161.095 86.4424 161.095 89.4325 160.673C92.348 160.207 95.2155 159.436 97.9955 158.371C104.225 155.785 110.188 152.495 115.789 148.556C116.628 148.087 117.269 147.285 117.58 146.315C117.89 145.345 117.846 144.281 117.457 143.346C117.007 142.452 116.27 141.771 115.386 141.436C114.503 141.1 113.537 141.133 112.675 141.528C106.769 143.787 100.708 145.529 94.548 146.739C90.8734 147.559 87.1613 148.166 83.4273 148.556H77.867C84.3568 139.292 88.2566 128.185 89.0989 116.567C91.323 92.3332 80.3135 68.0992 54.5134 65.6758C46.2219 65.6223 38.0372 67.7144 30.6326 71.78C23.2279 75.8456 16.8149 81.7685 11.921 89.0616C6.45474 96.0509 3.1913 104.767 2.61076 113.928C2.03022 123.089 4.16323 132.211 8.69603 139.953C11.5695 144.613 15.3708 148.506 19.8168 151.343L24.0426 153.766C15.5122 163.269 9.05121 174.74 5.1374 187.33C2.21554 197.092 0.531854 207.243 0.133072 217.502C-0.363546 232.466 0.530666 247.446 2.80205 262.214C2.82876 262.761 2.95866 263.297 3.18365 263.788C3.40865 264.279 3.72392 264.714 4.10987 265.066C4.49582 265.419 4.94418 265.681 5.42706 265.836C5.90994 265.992 6.41701 266.037 6.91672 265.97C7.82117 265.848 8.64831 265.353 9.22764 264.586C9.80697 263.82 10.0943 262.841 10.0305 261.85C9.34406 247.378 9.7532 232.87 11.2538 218.471C12.2239 209.248 13.8978 200.128 16.2581 191.208C19.3695 178.767 24.6975 167.116 31.9384 156.917C34.9409 157.765 37.9435 158.613 40.9461 159.219C41.7572 159.396 42.5995 159.214 43.2878 158.714C43.976 158.214 44.4538 157.437 44.616 156.553C44.7782 155.67 44.6116 154.752 44.1527 154.002C43.6939 153.252 42.9805 152.731 42.1694 152.555C19.928 146.981 15.9245 135.712 15.8133 135.349C12.652 129.15 11.4098 122.006 12.2713 114.977C13.1328 107.948 16.0519 101.409 20.5952 96.3318C24.4793 90.6967 29.519 86.1294 35.3117 82.9946C41.1044 79.8598 47.4896 78.2444 53.9574 78.2774C72.9738 79.4891 80.5359 97.5435 79.5351 115.477C79.6475 124.855 76.9034 134.01 71.732 141.508C66.5606 149.007 59.2538 154.425 50.9548 156.917C50.0406 157.095 49.2225 157.644 48.6653 158.454C48.1081 159.263 47.8533 160.273 47.9522 161.279C48.1157 162.266 48.6242 163.146 49.3708 163.734C50.1174 164.321 51.0439 164.571 51.9557 164.429C57.9721 163.488 63.6722 160.904 68.5255 156.917C72.2928 158.823 76.3056 160.09 80.4247 160.673Z" fill="white"/>
<path fill-rule="evenodd" clip-rule="evenodd" d="M117.679 165.399C113.139 170.08 108.099 174.149 102.666 177.516C97.2899 180.757 91.6265 183.396 85.7624 185.392C81.25 186.603 76.7961 188.058 72.4175 189.754C69.3162 190.999 66.6909 193.347 64.9666 196.419C62.462 203.094 61.3967 210.307 61.8528 217.502C61.8528 232.649 66.4123 251.309 67.0796 260.881C67.0935 261.385 67.2005 261.881 67.3941 262.339C67.5877 262.797 67.864 263.208 68.2064 263.547C68.5489 263.887 68.9506 264.147 69.3875 264.314C69.8244 264.48 70.2875 264.549 70.7494 264.516C71.2022 264.501 71.6477 264.388 72.0605 264.184C72.4733 263.981 72.8452 263.691 73.1551 263.331C73.4649 262.971 73.7066 262.548 73.8662 262.086C74.0259 261.624 74.1005 261.132 74.0856 260.639C74.0856 252.399 72.8623 237.253 72.8623 223.318C72.8623 191.935 79.646 200.781 89.877 196.419C95.989 193.275 101.832 189.544 107.337 185.271C112.94 180.931 118.021 175.843 122.461 170.125C122.771 169.818 123.019 169.444 123.189 169.027C123.359 168.609 123.446 168.158 123.446 167.701C123.446 167.245 123.359 166.793 123.189 166.376C123.019 165.959 122.771 165.585 122.461 165.278C122.16 164.904 121.788 164.606 121.371 164.405C120.953 164.205 120.5 164.107 120.044 164.119C119.588 164.13 119.139 164.251 118.731 164.472C118.322 164.694 117.963 165.01 117.679 165.399Z" fill="white"/>
<path fill-rule="evenodd" clip-rule="evenodd" d="M229.668 146.376C224.382 146.982 219.052 146.982 213.765 146.376C197.974 143.952 176.511 128.927 184.073 104.33C186.622 97.1467 190.706 90.7291 195.986 85.6086C201.266 80.4881 207.589 76.8122 214.433 74.8854C221.658 72.5001 229.4 72.7475 236.484 75.5903C243.569 78.433 249.609 83.7159 253.689 90.6375C255.715 94.178 257.075 98.1218 257.691 102.24C258.307 106.358 258.166 110.568 257.276 114.627C256.386 118.685 254.766 122.51 252.508 125.88C250.25 129.25 247.401 132.098 244.125 134.259C243.367 134.845 242.85 135.731 242.683 136.727C242.517 137.723 242.715 138.751 243.235 139.59C243.48 140.026 243.807 140.401 244.195 140.69C244.582 140.979 245.021 141.176 245.483 141.267C245.945 141.359 246.419 141.343 246.875 141.221C247.331 141.099 247.758 140.874 248.128 140.56C252.396 137.954 256.146 134.449 259.16 130.251C262.175 126.052 264.393 121.242 265.686 116.101C266.98 110.96 267.322 105.59 266.695 100.304C266.067 95.017 264.481 89.9191 262.029 85.306C257.072 75.9572 249.442 68.6338 240.305 64.4547C231.168 60.2755 221.026 59.4705 211.43 62.1626C202.718 64.6426 194.702 69.4222 188.088 76.0791C181.474 82.736 176.467 91.0653 173.508 100.331C171.65 106.528 171.32 113.148 172.549 119.528C173.779 125.907 176.526 131.823 180.514 136.682C178.679 135.981 176.894 135.131 175.176 134.138C169.368 129.925 164.595 124.225 161.275 117.537C158.552 112.196 155.103 107.335 151.044 103.118C147.786 99.5533 143.75 96.9493 139.315 95.5504C134.88 94.1515 130.191 94.0037 125.689 95.1208C122 96.82 118.757 99.4929 116.252 102.899C113.748 106.304 112.061 110.336 111.343 114.629C110.684 117.37 110.684 120.249 111.343 122.99C112.517 126.337 113.853 129.613 115.347 132.805C116.842 135.943 118.513 138.978 120.351 141.892C124.921 149.536 130.296 156.571 136.365 162.855C142.5 169.158 149.382 174.537 156.827 178.849C162.787 181.581 168.875 183.967 175.065 185.998C176.914 186.721 178.671 187.698 180.292 188.906C181.441 193.381 182.186 197.966 182.516 202.599C183.348 209.831 183.683 217.122 183.517 224.409C183.268 235.557 182.451 246.682 181.07 257.731C180.938 258.631 181.138 259.551 181.628 260.29C182.119 261.028 182.858 261.524 183.684 261.669C184.51 261.814 185.354 261.595 186.032 261.061C186.71 260.527 187.165 259.721 187.298 258.822C188.966 247.674 190.634 236.284 191.301 224.894C191.801 217.189 191.801 209.455 191.301 201.75C191.171 196.755 190.725 191.775 189.967 186.847C189.498 184.696 188.498 182.727 187.076 181.152C184.63 178.877 181.896 177 178.957 175.578C173.397 172.791 166.836 170.973 162.054 168.065C155.592 164.042 149.615 159.158 144.261 153.525C138.916 147.845 134.11 141.594 129.915 134.865C128.358 132.199 126.912 129.533 125.578 126.746C120.907 117.537 122.019 118.022 122.687 115.477C122.971 113.558 123.675 111.741 124.74 110.18C125.804 108.62 127.198 107.361 128.803 106.511C132.584 104.936 137.588 106.511 144.706 111.963C151.823 117.416 156.938 134.016 170.839 142.014C177.406 145.653 184.717 147.405 192.08 147.103C193.154 147.861 194.268 148.548 195.416 149.163C200.89 151.865 206.767 153.466 212.764 153.888C218.522 154.208 224.294 153.924 230.002 153.04C230.408 152.996 230.801 152.862 231.158 152.647C231.515 152.431 231.828 152.139 232.078 151.787C232.327 151.436 232.509 151.033 232.611 150.602C232.713 150.172 232.733 149.723 232.67 149.284C232.613 148.47 232.269 147.711 231.708 147.169C231.148 146.626 230.417 146.342 229.668 146.376Z" fill="white"/>
<path fill-rule="evenodd" clip-rule="evenodd" d="M239.675 141.407C239.394 141.021 239.039 140.706 238.635 140.484C238.23 140.263 237.787 140.14 237.334 140.124C236.882 140.108 236.432 140.2 236.016 140.393C235.599 140.586 235.226 140.876 234.923 141.242C234.62 141.608 234.394 142.042 234.26 142.513C234.126 142.984 234.089 143.481 234.149 143.97C234.21 144.458 234.368 144.927 234.611 145.342C234.855 145.757 235.179 146.11 235.56 146.375C244.804 157.773 250.625 171.98 252.241 187.088C253.691 196.141 254.582 205.29 254.91 214.473C255.323 228.699 254.989 242.94 253.91 257.125C253.847 257.619 253.876 258.121 253.994 258.603C254.111 259.085 254.316 259.536 254.595 259.931C254.875 260.325 255.224 260.656 255.621 260.902C256.019 261.148 256.458 261.306 256.912 261.366C257.824 261.507 258.75 261.258 259.497 260.67C260.244 260.083 260.752 259.203 260.916 258.215C263.769 243.818 265.517 229.186 266.142 214.473C266.509 204.383 265.687 194.284 263.696 184.423C260.376 167.54 251.91 152.379 239.675 141.407Z" fill="white"/>
<path fill-rule="evenodd" clip-rule="evenodd" d="M79.5301 43.6225C80.0692 45.6668 80.7763 47.654 81.643 49.5599C82.422 51.4392 83.3135 53.2607 84.312 55.0125C86.8712 59.2577 89.6951 63.3062 92.7637 67.1295C93.1824 67.8933 93.8514 68.4556 94.6357 68.703C95.42 68.9503 96.2612 68.8644 96.9896 68.4624C97.7116 68.0279 98.2459 67.2991 98.4753 66.4358C98.7046 65.5726 98.6103 64.6455 98.2129 63.8579C96.7672 59.1323 95.9888 54.5278 94.5431 49.9234C93.9167 47.9741 93.1737 46.0717 92.3189 44.2284C91.5394 42.3884 90.6477 40.6072 89.6499 38.8969C87.3146 34.656 84.7568 30.6574 82.1991 26.7799C81.7852 25.876 81.0639 25.1837 80.1886 24.8505C79.3134 24.5172 78.3534 24.5693 77.5128 24.9956C76.6723 25.422 76.0177 26.1889 75.6883 27.1331C75.3588 28.0774 75.3806 29.1245 75.749 30.0515C77.0835 34.4136 77.9732 39.0181 79.5301 43.6225Z" fill="white"/>
<path fill-rule="evenodd" clip-rule="evenodd" d="M129.907 46.5312C129.906 47.4104 130.219 48.2555 130.779 48.8884C131.339 49.5213 132.103 49.8926 132.909 49.924C133.322 49.9574 133.736 49.8975 134.127 49.7481C134.517 49.5987 134.875 49.363 135.178 49.0559C135.48 48.7487 135.722 48.3766 135.886 47.963C136.051 47.5494 136.135 47.1032 136.134 46.6524C137.135 41.5633 138.358 36.8376 138.914 31.6273C139.028 29.4885 139.028 27.3442 138.914 25.2053C139.022 23.0663 139.022 20.9224 138.914 18.7833C138.914 13.8153 137.58 8.96854 136.913 3.8794C136.914 2.89168 136.57 1.94045 135.95 1.21988C135.33 0.499296 134.481 0.0636856 133.576 0.00195498C133.114 -0.0142917 132.654 0.0708591 132.223 0.252342C131.792 0.433825 131.399 0.707933 131.067 1.05837C130.735 1.4088 130.471 1.8284 130.29 2.29221C130.11 2.75603 130.018 3.25458 130.018 3.75823C129.239 8.84737 128.35 13.6942 127.905 18.7833C127.795 20.9223 127.795 23.0663 127.905 25.2053C127.796 27.3443 127.796 29.4883 127.905 31.6273C128.127 36.7165 129.239 41.4421 129.907 46.5312Z" fill="white"/>
<path fill-rule="evenodd" clip-rule="evenodd" d="M170.391 63.2521C173.664 60.6894 176.75 57.8536 179.621 54.7702C180.744 53.4209 181.749 51.9605 182.624 50.408C183.513 48.954 184.292 47.3788 185.07 45.8036C186.738 41.9261 188.073 38.1699 189.63 34.4136C190.206 33.6135 190.48 32.6043 190.398 31.5913C190.315 30.5784 189.881 29.6378 189.185 28.961C188.415 28.3944 187.471 28.1786 186.557 28.3597C185.643 28.5408 184.83 29.1046 184.292 29.9303C181.4 32.9596 178.731 35.7465 176.062 39.0181C175.061 40.3509 174.061 41.6838 173.171 43.1378C172.09 44.6239 171.123 46.2044 170.28 47.8635C168.611 51.6197 167.499 55.376 165.72 59.0111C165.435 59.3426 165.214 59.7331 165.07 60.1596C164.926 60.586 164.862 61.0395 164.881 61.4934C164.901 61.9473 165.005 62.3921 165.185 62.8016C165.366 63.2111 165.62 63.5769 165.933 63.8773C166.246 64.1776 166.611 64.4065 167.007 64.5501C167.403 64.6938 167.821 64.7495 168.236 64.7138C168.652 64.6781 169.057 64.5517 169.427 64.3423C169.797 64.1328 170.125 63.8445 170.391 63.4944V63.2521Z" fill="white"/>
</svg>
